<svg width="18" height="24" viewBox="0 0 18 24" fill="none" xmlns="http://www.w3.org/2000/svg">
<g clip-path="url(#clip0_2012_7325)">
<path fill-rule="evenodd" clip-rule="evenodd" d="M17.64 12.2042C17.64 11.5661 17.5827 10.9524 17.4764 10.3633H9V13.8447H13.8436C13.635 14.9697 13.0009 15.9229 12.0477 16.5611V18.8192H14.9564C16.6582 17.2524 17.64 14.9451 17.64 12.2042Z" fill="#4285F4"/>
<path fill-rule="evenodd" clip-rule="evenodd" d="M9.00012 21.0009C11.4301 21.0009 13.4674 20.195 14.9565 18.8204L12.0478 16.5622C11.2419 17.1022 10.211 17.4213 9.00012 17.4213C6.65612 17.4213 4.67192 15.8381 3.96412 13.7109H0.95752V16.0427C2.43832 18.984 5.48192 21.0009 9.00012 21.0009Z" fill="#34A853"/>
<path fill-rule="evenodd" clip-rule="evenodd" d="M3.964 13.7109C3.784 13.1709 3.6818 12.594 3.6818 12.0009C3.6818 11.4077 3.7841 10.8309 3.9641 10.2909V7.95898H0.957301C0.327281 9.21316 -0.000549309 10.5974 6.90907e-07 12.0009C6.90907e-07 13.4531 0.347701 14.8277 0.957301 16.0427L3.964 13.7109Z" fill="#FBBC05"/>
<path fill-rule="evenodd" clip-rule="evenodd" d="M9 6.5795C10.3214 6.5795 11.5077 7.0336 12.4405 7.9255L15.0218 5.3441C13.4632 3.8918 11.4259 3 9 3C5.48178 3 2.43818 5.0168 0.957275 7.9582L3.96398 10.29C4.67178 8.1627 6.65588 6.5795 9 6.5795Z" fill="#EA4335"/>
</g>
<defs>
<clipPath id="clip0_2012_7325">
<rect width="17.64" height="24" fill="white"/>
</clipPath>
</defs>
</svg>
